<svg width="60" height="60" viewBox="0 0 60 60" fill="none" xmlns="http://www.w3.org/2000/svg">
  <circle cx="30" cy="30" r="30" fill="#134844" />
  <path
    d="M27.8422 15.1699L30.5378 19.7506L33.6873 15.4693L34.4247 20.7329L38.9728 17.9827L37.6398 23.1278L42.8942 22.3275L39.6937 26.5708L44.8544 27.8422L40.2737 30.5378L44.555 33.6873L39.2914 34.4247L42.0415 38.9728L36.8965 37.6398L37.6968 42.8942L33.4535 39.6937L32.1821 44.8544L29.4865 40.2737L26.337 44.5549L25.5996 39.2914L21.0515 42.0415L22.3845 36.8965L17.1301 37.6968L20.3306 33.4534L15.1699 32.1821L19.7506 29.4865L15.4693 26.337L20.7329 25.5996L17.9827 21.0515L23.1278 22.3844L22.3275 17.1301L26.5708 20.3306L27.8422 15.1699Z"
    fill="#FA5631" />
  <path
    d="M17.75 37.12C17.2433 37.12 16.82 37.03 16.48 36.85C16.14 36.67 15.8833 36.3933 15.71 36.02C15.5367 35.64 15.44 35.15 15.42 34.55L16.95 34.32C16.9567 34.6667 16.9867 34.9467 17.04 35.16C17.1 35.3733 17.18 35.5267 17.28 35.62C17.3867 35.7133 17.5133 35.76 17.66 35.76C17.8467 35.76 17.9667 35.6967 18.02 35.57C18.08 35.4433 18.11 35.31 18.11 35.17C18.11 34.8367 18.03 34.5567 17.87 34.33C17.71 34.0967 17.4933 33.8633 17.22 33.63L16.52 33.02C16.2133 32.76 15.9533 32.4667 15.74 32.14C15.5333 31.8067 15.43 31.3967 15.43 30.91C15.43 30.2233 15.6333 29.7 16.04 29.34C16.4467 28.9733 17 28.79 17.7 28.79C18.1333 28.79 18.48 28.8633 18.74 29.01C19.0067 29.1567 19.2067 29.35 19.34 29.59C19.48 29.8233 19.5733 30.0733 19.62 30.34C19.6733 30.6 19.7033 30.85 19.71 31.09L18.17 31.28C18.1633 31.04 18.1467 30.8333 18.12 30.66C18.1 30.48 18.0533 30.3433 17.98 30.25C17.9067 30.15 17.7933 30.1 17.64 30.1C17.4733 30.1 17.35 30.17 17.27 30.31C17.1967 30.45 17.16 30.59 17.16 30.73C17.16 31.03 17.23 31.2767 17.37 31.47C17.5167 31.6567 17.7067 31.8533 17.94 32.06L18.61 32.65C18.9633 32.95 19.26 33.29 19.5 33.67C19.7467 34.05 19.87 34.52 19.87 35.08C19.87 35.46 19.7833 35.8067 19.61 36.12C19.4367 36.4267 19.19 36.67 18.87 36.85C18.5567 37.03 18.1833 37.12 17.75 37.12ZM20.2686 37L21.7986 28.9H23.8386L25.3486 37H23.6986L23.4286 35.29H22.2386L21.9586 37H20.2686ZM22.3986 34.22H23.2586L22.8286 31.06L22.3986 34.22ZM26.1664 37V28.9H27.9564V35.79H29.8164V37H26.1664ZM31.0843 37L29.6243 28.9H31.1543L32.0243 34.4L32.8343 28.9H34.4543L32.9743 37H31.0843ZM35.004 37L37.452 24.04H40.716L43.132 37H40.492L40.06 34.264H38.156L37.708 37H35.004ZM38.412 32.552H39.788L39.1 27.496L38.412 32.552ZM44.4405 37V24.04H50.2645V25.992H47.3045V29.208H49.5605V31.192H47.3045V35.064H50.2965V37H44.4405ZM44.7765 22.904L46.2965 19.832H48.4245L49.9925 22.904H48.0725L47.3685 21L46.6805 22.904H44.7765Z"
    fill="white" />
</svg>